<svg width="350" height="350" viewBox="0 0 350 350" fill="none" xmlns="http://www.w3.org/2000/svg">
<rect width="350" height="350" rx="50" fill="#388E3C"/>
<path d="M146.662 183.039V200.724H182.033V183.039H146.662ZM190.853 136.134L182.079 120.779H182.079L190.853 136.134ZM234.585 146.819C243.416 150.992 253.958 147.215 258.131 138.384C262.304 129.553 258.528 119.011 249.697 114.838L234.585 146.819ZM182.033 183.039C182.033 179.355 180.79 162.254 199.628 151.489L182.079 120.779C163.652 131.308 154.484 145.921 150.212 158.728C148.127 164.981 147.249 170.653 146.885 175.026C146.702 177.223 146.649 179.105 146.64 180.571C146.639 180.738 146.662 184.413 146.662 183.039H182.033ZM199.628 151.489C210.292 145.395 219.503 144.583 225.789 145.054C229.001 145.294 231.518 145.879 233.105 146.347C233.894 146.58 234.436 146.778 234.698 146.88C234.829 146.931 234.887 146.956 234.87 146.949C234.862 146.946 234.834 146.934 234.787 146.912C234.763 146.901 234.735 146.888 234.701 146.873C234.684 146.865 234.666 146.857 234.647 146.848C234.637 146.843 234.627 146.838 234.617 146.834C234.612 146.831 234.604 146.827 234.601 146.826C234.593 146.822 234.585 146.819 242.141 130.828C249.697 114.838 249.689 114.835 249.68 114.831C249.677 114.829 249.669 114.825 249.663 114.822C249.651 114.817 249.639 114.811 249.627 114.805C249.602 114.794 249.575 114.782 249.547 114.769C249.491 114.743 249.429 114.714 249.361 114.684C249.225 114.622 249.065 114.551 248.881 114.472C248.514 114.313 248.051 114.121 247.498 113.906C246.392 113.477 244.916 112.953 243.108 112.42C239.5 111.357 234.501 110.236 228.428 109.782C216.144 108.862 199.711 110.703 182.079 120.779L199.628 151.489Z" fill="white"/>
<line x1="164.325" y1="194.496" x2="164.325" y2="289.29" stroke="white" stroke-width="35.3707"/>
<path d="M233.765 94.7926C209.633 109.598 195.316 154.353 199.696 150.282C204.076 146.212 250.345 158.12 275.192 140.108C300.04 122.096 304.04 63.6241 295.045 80.7745C286.049 97.9249 257.897 79.9866 233.765 94.7926Z" fill="white"/>
<path d="M146.64 194.497H182.011C182.011 194.497 187.316 120.217 116.575 114.912C103.874 113.959 104.196 105.264 88.2786 109.606C49.3717 120.217 45.3343 153.365 51.1388 143.208C58.2134 130.828 77.0421 153.933 97.1207 150.282C117.199 146.632 114.806 134.366 132.491 146.745C150.177 162.662 146.64 194.497 146.64 194.497Z" fill="white"/>
</svg>
